<svg id="visual" viewBox="0 0 900 600" width="900" height="600" xmlns="http://www.w3.org/2000/svg" xmlns:xlink="http://www.w3.org/1999/xlink" version="1.1"><path d="M635 600L618.7 585.7C602.3 571.3 569.7 542.7 569.7 514.2C569.7 485.7 602.3 457.3 619.7 428.8C637 400.3 639 371.7 623.8 343C608.7 314.3 576.3 285.7 569.5 257C562.7 228.3 581.3 199.7 602.7 171.2C624 142.7 648 114.3 647.5 85.8C647 57.3 622 28.7 609.5 14.3L597 0L900 0L900 14.3C900 28.7 900 57.3 900 85.8C900 114.3 900 142.7 900 171.2C900 199.7 900 228.3 900 257C900 285.7 900 314.3 900 343C900 371.7 900 400.3 900 428.8C900 457.3 900 485.7 900 514.2C900 542.7 900 571.3 900 585.7L900 600Z" fill="#01c89e"></path><path d="M685 600L679.7 585.7C674.3 571.3 663.7 542.7 663.2 514.2C662.7 485.7 672.3 457.3 666 428.8C659.7 400.3 637.3 371.7 643.8 343C650.3 314.3 685.7 285.7 692.5 257C699.3 228.3 677.7 199.7 657.2 171.2C636.7 142.7 617.3 114.3 617 85.8C616.7 57.3 635.3 28.7 644.7 14.3L654 0L900 0L900 14.3C900 28.7 900 57.3 900 85.8C900 114.3 900 142.7 900 171.2C900 199.7 900 228.3 900 257C900 285.7 900 314.3 900 343C900 371.7 900 400.3 900 428.8C900 457.3 900 485.7 900 514.2C900 542.7 900 571.3 900 585.7L900 600Z" fill="#6cd7b5"></path><path d="M743 600L743.8 585.7C744.7 571.3 746.3 542.7 742 514.2C737.7 485.7 727.3 457.3 722.3 428.8C717.3 400.3 717.7 371.7 724.8 343C732 314.3 746 285.7 741 257C736 228.3 712 199.7 709 171.2C706 142.7 724 114.3 736.5 85.8C749 57.3 756 28.7 759.5 14.3L763 0L900 0L900 14.3C900 28.7 900 57.3 900 85.8C900 114.3 900 142.7 900 171.2C900 199.7 900 228.3 900 257C900 285.7 900 314.3 900 343C900 371.7 900 400.3 900 428.8C900 457.3 900 485.7 900 514.2C900 542.7 900 571.3 900 585.7L900 600Z" fill="#a2e5cd"></path><path d="M749 600L757 585.7C765 571.3 781 542.7 786.7 514.2C792.3 485.7 787.7 457.3 786.2 428.8C784.7 400.3 786.3 371.7 778.5 343C770.7 314.3 753.3 285.7 748.3 257C743.3 228.3 750.7 199.7 754.5 171.2C758.3 142.7 758.7 114.3 760.7 85.8C762.7 57.3 766.3 28.7 768.2 14.3L770 0L900 0L900 14.3C900 28.7 900 57.3 900 85.8C900 114.3 900 142.7 900 171.2C900 199.7 900 228.3 900 257C900 285.7 900 314.3 900 343C900 371.7 900 400.3 900 428.8C900 457.3 900 485.7 900 514.2C900 542.7 900 571.3 900 585.7L900 600Z" fill="#d2f2e6"></path><path d="M821 600L816.5 585.7C812 571.3 803 542.7 804.5 514.2C806 485.7 818 457.3 825 428.8C832 400.3 834 371.7 838.2 343C842.3 314.3 848.7 285.7 852.8 257C857 228.3 859 199.7 856.2 171.2C853.3 142.7 845.7 114.3 842 85.8C838.3 57.3 838.7 28.7 838.8 14.3L839 0L900 0L900 14.3C900 28.7 900 57.3 900 85.8C900 114.3 900 142.7 900 171.2C900 199.7 900 228.3 900 257C900 285.7 900 314.3 900 343C900 371.7 900 400.3 900 428.8C900 457.3 900 485.7 900 514.2C900 542.7 900 571.3 900 585.7L900 600Z" fill="#ffffff"></path></svg>