<svg id="visual" viewBox="0 0 900 600" width="900" height="600" xmlns="http://www.w3.org/2000/svg" xmlns:xlink="http://www.w3.org/1999/xlink" version="1.1"><path d="M267 0L283.3 14.3C299.7 28.7 332.3 57.3 332.3 85.8C332.3 114.3 299.7 142.7 282.3 171.2C265 199.7 263 228.3 278.2 257C293.3 285.7 325.7 314.3 332.5 343C339.3 371.7 320.7 400.3 299.3 428.8C278 457.3 254 485.7 254.5 514.2C255 542.7 280 571.3 292.5 585.7L305 600L0 600L0 585.7C0 571.3 0 542.7 0 514.2C0 485.7 0 457.3 0 428.8C0 400.3 0 371.7 0 343C0 314.3 0 285.7 0 257C0 228.3 0 199.7 0 171.2C0 142.7 0 114.3 0 85.8C0 57.3 0 28.7 0 14.3L0 0Z" fill="#01c89e"></path><path d="M217 0L222.3 14.3C227.7 28.7 238.3 57.3 238.8 85.8C239.3 114.3 229.7 142.7 236 171.2C242.3 199.7 264.7 228.3 258.2 257C251.7 285.7 216.3 314.3 209.5 343C202.7 371.7 224.3 400.3 244.8 428.8C265.3 457.3 284.7 485.7 285 514.2C285.3 542.7 266.7 571.3 257.3 585.7L248 600L0 600L0 585.7C0 571.3 0 542.7 0 514.2C0 485.7 0 457.3 0 428.8C0 400.3 0 371.7 0 343C0 314.3 0 285.7 0 257C0 228.3 0 199.7 0 171.2C0 142.7 0 114.3 0 85.8C0 57.3 0 28.7 0 14.3L0 0Z" fill="#6cd7b5"></path><path d="M159 0L158.2 14.3C157.3 28.7 155.7 57.3 160 85.8C164.3 114.3 174.7 142.7 179.7 171.2C184.7 199.7 184.3 228.3 177.2 257C170 285.7 156 314.3 161 343C166 371.7 190 400.3 193 428.8C196 457.3 178 485.7 165.5 514.2C153 542.7 146 571.3 142.5 585.7L139 600L0 600L0 585.7C0 571.3 0 542.7 0 514.2C0 485.7 0 457.3 0 428.8C0 400.3 0 371.7 0 343C0 314.3 0 285.7 0 257C0 228.3 0 199.7 0 171.2C0 142.7 0 114.3 0 85.8C0 57.3 0 28.7 0 14.3L0 0Z" fill="#a2e5cd"></path><path d="M153 0L145 14.3C137 28.7 121 57.3 115.3 85.8C109.7 114.3 114.3 142.7 115.8 171.2C117.3 199.7 115.7 228.3 123.5 257C131.3 285.7 148.7 314.3 153.7 343C158.7 371.7 151.3 400.3 147.5 428.8C143.7 457.3 143.3 485.7 141.3 514.2C139.3 542.7 135.7 571.3 133.8 585.7L132 600L0 600L0 585.7C0 571.3 0 542.7 0 514.2C0 485.7 0 457.3 0 428.8C0 400.3 0 371.7 0 343C0 314.3 0 285.7 0 257C0 228.3 0 199.7 0 171.2C0 142.7 0 114.3 0 85.8C0 57.3 0 28.7 0 14.3L0 0Z" fill="#d2f2e6"></path><path d="M81 0L85.5 14.3C90 28.7 99 57.3 97.5 85.8C96 114.3 84 142.7 77 171.2C70 199.7 68 228.3 63.8 257C59.7 285.7 53.3 314.3 49.2 343C45 371.7 43 400.3 45.8 428.8C48.7 457.3 56.3 485.7 60 514.2C63.7 542.7 63.3 571.3 63.2 585.7L63 600L0 600L0 585.7C0 571.3 0 542.7 0 514.2C0 485.7 0 457.3 0 428.8C0 400.3 0 371.7 0 343C0 314.3 0 285.7 0 257C0 228.3 0 199.7 0 171.2C0 142.7 0 114.3 0 85.8C0 57.3 0 28.7 0 14.3L0 0Z" fill="#ffffff"></path></svg>