<svg id="visual" viewBox="0 0 1300 450" width="1300" height="450" xmlns="http://www.w3.org/2000/svg" xmlns:xlink="http://www.w3.org/1999/xlink" version="1.1"><rect x="0" y="0" width="1300" height="450" fill="#1980e6"></rect><path d="M0 71L43.3 80.8C86.7 90.7 173.3 110.3 260 119.5C346.7 128.7 433.3 127.3 520 122.8C606.7 118.3 693.3 110.7 780 114C866.7 117.3 953.3 131.7 1040 129.3C1126.7 127 1213.3 108 1256.7 98.5L1300 89L1300 451L1256.7 451C1213.3 451 1126.7 451 1040 451C953.3 451 866.7 451 780 451C693.3 451 606.7 451 520 451C433.3 451 346.7 451 260 451C173.3 451 86.7 451 43.3 451L0 451Z" fill="#1980e6"></path><path d="M0 173L43.3 164.8C86.7 156.7 173.3 140.3 260 143C346.7 145.7 433.3 167.3 520 169C606.7 170.7 693.3 152.3 780 149.3C866.7 146.3 953.3 158.7 1040 157.3C1126.7 156 1213.3 141 1256.7 133.5L1300 126L1300 451L1256.7 451C1213.3 451 1126.7 451 1040 451C953.3 451 866.7 451 780 451C693.3 451 606.7 451 520 451C433.3 451 346.7 451 260 451C173.3 451 86.7 451 43.3 451L0 451Z" fill="#478be9"></path><path d="M0 143L43.3 153.3C86.7 163.7 173.3 184.3 260 189.8C346.7 195.3 433.3 185.7 520 174.5C606.7 163.3 693.3 150.7 780 152.7C866.7 154.7 953.3 171.3 1040 176.2C1126.7 181 1213.3 174 1256.7 170.5L1300 167L1300 451L1256.7 451C1213.3 451 1126.7 451 1040 451C953.3 451 866.7 451 780 451C693.3 451 606.7 451 520 451C433.3 451 346.7 451 260 451C173.3 451 86.7 451 43.3 451L0 451Z" fill="#6295eb"></path><path d="M0 194L43.3 190.8C86.7 187.7 173.3 181.3 260 181.8C346.7 182.3 433.3 189.7 520 203.3C606.7 217 693.3 237 780 240.8C866.7 244.7 953.3 232.3 1040 216.8C1126.7 201.3 1213.3 182.7 1256.7 173.3L1300 164L1300 451L1256.7 451C1213.3 451 1126.7 451 1040 451C953.3 451 866.7 451 780 451C693.3 451 606.7 451 520 451C433.3 451 346.7 451 260 451C173.3 451 86.7 451 43.3 451L0 451Z" fill="#78a0ee"></path><path d="M0 232L43.3 229.5C86.7 227 173.3 222 260 225.7C346.7 229.3 433.3 241.7 520 237.3C606.7 233 693.3 212 780 212.5C866.7 213 953.3 235 1040 236.2C1126.7 237.3 1213.3 217.7 1256.7 207.8L1300 198L1300 451L1256.7 451C1213.3 451 1126.7 451 1040 451C953.3 451 866.7 451 780 451C693.3 451 606.7 451 520 451C433.3 451 346.7 451 260 451C173.3 451 86.7 451 43.3 451L0 451Z" fill="#8cacf0"></path><path d="M0 221L43.3 229.7C86.7 238.3 173.3 255.7 260 267.5C346.7 279.3 433.3 285.7 520 276.3C606.7 267 693.3 242 780 230.8C866.7 219.7 953.3 222.3 1040 236.3C1126.7 250.3 1213.3 275.7 1256.7 288.3L1300 301L1300 451L1256.7 451C1213.3 451 1126.7 451 1040 451C953.3 451 866.7 451 780 451C693.3 451 606.7 451 520 451C433.3 451 346.7 451 260 451C173.3 451 86.7 451 43.3 451L0 451Z" fill="#9eb7f3"></path><path d="M0 263L43.3 270.7C86.7 278.3 173.3 293.7 260 291.7C346.7 289.7 433.3 270.3 520 264.8C606.7 259.3 693.3 267.7 780 270.7C866.7 273.7 953.3 271.3 1040 266.8C1126.7 262.3 1213.3 255.7 1256.7 252.3L1300 249L1300 451L1256.7 451C1213.3 451 1126.7 451 1040 451C953.3 451 866.7 451 780 451C693.3 451 606.7 451 520 451C433.3 451 346.7 451 260 451C173.3 451 86.7 451 43.3 451L0 451Z" fill="#b0c3f5"></path><path d="M0 306L43.3 309.2C86.7 312.3 173.3 318.7 260 315.5C346.7 312.3 433.3 299.7 520 293.7C606.7 287.7 693.3 288.3 780 288.2C866.7 288 953.3 287 1040 288.2C1126.7 289.3 1213.3 292.7 1256.7 294.3L1300 296L1300 451L1256.7 451C1213.3 451 1126.7 451 1040 451C953.3 451 866.7 451 780 451C693.3 451 606.7 451 520 451C433.3 451 346.7 451 260 451C173.3 451 86.7 451 43.3 451L0 451Z" fill="#c0cff7"></path><path d="M0 356L43.3 353.5C86.7 351 173.3 346 260 343C346.7 340 433.3 339 520 335C606.7 331 693.3 324 780 322.7C866.7 321.3 953.3 325.7 1040 331.5C1126.7 337.3 1213.3 344.7 1256.7 348.3L1300 352L1300 451L1256.7 451C1213.3 451 1126.7 451 1040 451C953.3 451 866.7 451 780 451C693.3 451 606.7 451 520 451C433.3 451 346.7 451 260 451C173.3 451 86.7 451 43.3 451L0 451Z" fill="#d0daf9"></path><path d="M0 344L43.3 350.7C86.7 357.3 173.3 370.7 260 375.7C346.7 380.7 433.3 377.3 520 373.2C606.7 369 693.3 364 780 358.5C866.7 353 953.3 347 1040 343.7C1126.7 340.3 1213.3 339.7 1256.7 339.3L1300 339L1300 451L1256.7 451C1213.3 451 1126.7 451 1040 451C953.3 451 866.7 451 780 451C693.3 451 606.7 451 520 451C433.3 451 346.7 451 260 451C173.3 451 86.7 451 43.3 451L0 451Z" fill="#e0e6fb"></path><path d="M0 377L43.3 382.3C86.7 387.7 173.3 398.3 260 397.3C346.7 396.3 433.3 383.7 520 377C606.7 370.3 693.3 369.7 780 375.3C866.7 381 953.3 393 1040 397.2C1126.7 401.3 1213.3 397.7 1256.7 395.8L1300 394L1300 451L1256.7 451C1213.3 451 1126.7 451 1040 451C953.3 451 866.7 451 780 451C693.3 451 606.7 451 520 451C433.3 451 346.7 451 260 451C173.3 451 86.7 451 43.3 451L0 451Z" fill="#f0f3fd"></path><path d="M0 419L43.3 420.7C86.7 422.3 173.3 425.7 260 427.3C346.7 429 433.3 429 520 424.5C606.7 420 693.3 411 780 409.8C866.7 408.7 953.3 415.3 1040 419.7C1126.7 424 1213.3 426 1256.7 427L1300 428L1300 451L1256.7 451C1213.3 451 1126.7 451 1040 451C953.3 451 866.7 451 780 451C693.3 451 606.7 451 520 451C433.3 451 346.7 451 260 451C173.3 451 86.7 451 43.3 451L0 451Z" fill="#ffffff"></path></svg>