<svg id="visual" viewBox="0 0 1500 1500" width="1500" height="1500" xmlns="http://www.w3.org/2000/svg" xmlns:xlink="http://www.w3.org/1999/xlink" version="1.1"><rect x="0" y="0" width="1500" height="1500" fill="#1980e6"></rect><path d="M0 239L50 271.8C100 304.7 200 370.3 300 400.7C400 431 500 426 600 411C700 396 800 371 900 382.3C1000 393.7 1100 441.3 1200 433.3C1300 425.3 1400 361.7 1450 329.8L1500 298L1500 1501L1450 1501C1400 1501 1300 1501 1200 1501C1100 1501 1000 1501 900 1501C800 1501 700 1501 600 1501C500 1501 400 1501 300 1501C200 1501 100 1501 50 1501L0 1501Z" fill="#0a4d91"></path><path d="M0 578L50 551.2C100 524.3 200 470.7 300 479.7C400 488.7 500 560.3 600 565.8C700 571.3 800 510.7 900 500.7C1000 490.7 1100 531.3 1200 526.5C1300 521.7 1400 471.3 1450 446.2L1500 421L1500 1501L1450 1501C1400 1501 1300 1501 1200 1501C1100 1501 1000 1501 900 1501C800 1501 700 1501 600 1501C500 1501 400 1501 300 1501C200 1501 100 1501 50 1501L0 1501Z" fill="#074888"></path><path d="M0 480L50 514.2C100 548.3 200 616.7 300 634.7C400 652.7 500 620.3 600 583.3C700 546.3 800 504.7 900 511.7C1000 518.7 1100 574.3 1200 590.5C1300 606.7 1400 583.3 1450 571.7L1500 560L1500 1501L1450 1501C1400 1501 1300 1501 1200 1501C1100 1501 1000 1501 900 1501C800 1501 700 1501 600 1501C500 1501 400 1501 300 1501C200 1501 100 1501 50 1501L0 1501Z" fill="#054480"></path><path d="M0 650L50 639C100 628 200 606 300 607.8C400 609.7 500 635.3 600 681C700 726.7 800 792.3 900 805C1000 817.7 1100 777.3 1200 726C1300 674.7 1400 612.3 1450 581.2L1500 550L1500 1501L1450 1501C1400 1501 1300 1501 1200 1501C1100 1501 1000 1501 900 1501C800 1501 700 1501 600 1501C500 1501 400 1501 300 1501C200 1501 100 1501 50 1501L0 1501Z" fill="#043f77"></path><path d="M0 775L50 767C100 759 200 743 300 755.3C400 767.7 500 808.3 600 793.7C700 779 800 709 900 710.8C1000 712.7 1100 786.3 1200 790.5C1300 794.7 1400 729.3 1450 696.7L1500 664L1500 1501L1450 1501C1400 1501 1300 1501 1200 1501C1100 1501 1000 1501 900 1501C800 1501 700 1501 600 1501C500 1501 400 1501 300 1501C200 1501 100 1501 50 1501L0 1501Z" fill="#033b6f"></path><path d="M0 738L50 766.8C100 795.7 200 853.3 300 893.2C400 933 500 955 600 924.2C700 893.3 800 809.7 900 772.3C1000 735 1100 744 1200 790.5C1300 837 1400 921 1450 963L1500 1005L1500 1501L1450 1501C1400 1501 1300 1501 1200 1501C1100 1501 1000 1501 900 1501C800 1501 700 1501 600 1501C500 1501 400 1501 300 1501C200 1501 100 1501 50 1501L0 1501Z" fill="#023666"></path><path d="M0 879L50 904.8C100 930.7 200 982.3 300 975.7C400 969 500 904 600 885.7C700 867.3 800 895.7 900 905.5C1000 915.3 1100 906.7 1200 891.3C1300 876 1400 854 1450 843L1500 832L1500 1501L1450 1501C1400 1501 1300 1501 1200 1501C1100 1501 1000 1501 900 1501C800 1501 700 1501 600 1501C500 1501 400 1501 300 1501C200 1501 100 1501 50 1501L0 1501Z" fill="#02325e"></path><path d="M0 1021L50 1031.7C100 1042.3 200 1063.7 300 1053.3C400 1043 500 1001 600 981.3C700 961.7 800 964.3 900 964C1000 963.7 1100 960.3 1200 964.2C1300 968 1400 979 1450 984.5L1500 990L1500 1501L1450 1501C1400 1501 1300 1501 1200 1501C1100 1501 1000 1501 900 1501C800 1501 700 1501 600 1501C500 1501 400 1501 300 1501C200 1501 100 1501 50 1501L0 1501Z" fill="#022e56"></path><path d="M0 1190L50 1181.7C100 1173.3 200 1156.7 300 1146.7C400 1136.7 500 1133.3 600 1119.7C700 1106 800 1082 900 1077.3C1000 1072.7 1100 1087.3 1200 1106.8C1300 1126.3 1400 1150.7 1450 1162.8L1500 1175L1500 1501L1450 1501C1400 1501 1300 1501 1200 1501C1100 1501 1000 1501 900 1501C800 1501 700 1501 600 1501C500 1501 400 1501 300 1501C200 1501 100 1501 50 1501L0 1501Z" fill="#03294e"></path><path d="M0 1150L50 1172C100 1194 200 1238 300 1254.7C400 1271.3 500 1260.7 600 1247C700 1233.3 800 1216.7 900 1198.5C1000 1180.3 1100 1160.7 1200 1149.5C1300 1138.3 1400 1135.7 1450 1134.3L1500 1133L1500 1501L1450 1501C1400 1501 1300 1501 1200 1501C1100 1501 1000 1501 900 1501C800 1501 700 1501 600 1501C500 1501 400 1501 300 1501C200 1501 100 1501 50 1501L0 1501Z" fill="#032546"></path><path d="M0 1258L50 1275.7C100 1293.3 200 1328.7 300 1325.3C400 1322 500 1280 600 1257.8C700 1235.7 800 1233.3 900 1252.5C1000 1271.7 1100 1312.3 1200 1326.3C1300 1340.3 1400 1327.7 1450 1321.3L1500 1315L1500 1501L1450 1501C1400 1501 1300 1501 1200 1501C1100 1501 1000 1501 900 1501C800 1501 700 1501 600 1501C500 1501 400 1501 300 1501C200 1501 100 1501 50 1501L0 1501Z" fill="#04213e"></path><path d="M0 1400L50 1405.2C100 1410.3 200 1420.7 300 1426C400 1431.3 500 1431.7 600 1417.2C700 1402.7 800 1373.3 900 1369.3C1000 1365.3 1100 1386.7 1200 1400.7C1300 1414.7 1400 1421.3 1450 1424.7L1500 1428L1500 1501L1450 1501C1400 1501 1300 1501 1200 1501C1100 1501 1000 1501 900 1501C800 1501 700 1501 600 1501C500 1501 400 1501 300 1501C200 1501 100 1501 50 1501L0 1501Z" fill="#041d36"></path></svg>