<svg id="visual" viewBox="0 0 600 600" width="600" height="600" xmlns="http://www.w3.org/2000/svg" xmlns:xlink="http://www.w3.org/1999/xlink" version="1.1"><path d="M0 356L14.3 365.8C28.7 375.7 57.3 395.3 85.8 403C114.3 410.7 142.7 406.3 171.2 411.8C199.7 417.3 228.3 432.7 257 436.5C285.7 440.3 314.3 432.7 343 420.3C371.7 408 400.3 391 428.8 389C457.3 387 485.7 400 514.2 401.7C542.7 403.3 571.3 393.7 585.7 388.8L600 384L600 601L585.7 601C571.3 601 542.7 601 514.2 601C485.7 601 457.3 601 428.8 601C400.3 601 371.7 601 343 601C314.3 601 285.7 601 257 601C228.3 601 199.7 601 171.2 601C142.7 601 114.3 601 85.8 601C57.3 601 28.7 601 14.3 601L0 601Z" fill="#01c89e"></path><path d="M0 413L14.3 422.8C28.7 432.7 57.3 452.3 85.8 461.5C114.3 470.7 142.7 469.3 171.2 467.8C199.7 466.3 228.3 464.7 257 458C285.7 451.3 314.3 439.7 343 438.8C371.7 438 400.3 448 428.8 443.2C457.3 438.3 485.7 418.7 514.2 418.8C542.7 419 571.3 439 585.7 449L600 459L600 601L585.7 601C571.3 601 542.7 601 514.2 601C485.7 601 457.3 601 428.8 601C400.3 601 371.7 601 343 601C314.3 601 285.7 601 257 601C228.3 601 199.7 601 171.2 601C142.7 601 114.3 601 85.8 601C57.3 601 28.7 601 14.3 601L0 601Z" fill="#6cd7b5"></path><path d="M0 486L14.3 488.5C28.7 491 57.3 496 85.8 498.8C114.3 501.7 142.7 502.3 171.2 492.7C199.7 483 228.3 463 257 459.8C285.7 456.7 314.3 470.3 343 478.8C371.7 487.3 400.3 490.7 428.8 483.5C457.3 476.3 485.7 458.7 514.2 450.8C542.7 443 571.3 445 585.7 446L600 447L600 601L585.7 601C571.3 601 542.7 601 514.2 601C485.7 601 457.3 601 428.8 601C400.3 601 371.7 601 343 601C314.3 601 285.7 601 257 601C228.3 601 199.7 601 171.2 601C142.7 601 114.3 601 85.8 601C57.3 601 28.7 601 14.3 601L0 601Z" fill="#a2e5cd"></path><path d="M0 488L14.3 493C28.7 498 57.3 508 85.8 511.3C114.3 514.7 142.7 511.3 171.2 508.2C199.7 505 228.3 502 257 501.8C285.7 501.7 314.3 504.3 343 511.3C371.7 518.3 400.3 529.7 428.8 531.3C457.3 533 485.7 525 514.2 519.7C542.7 514.3 571.3 511.7 585.7 510.3L600 509L600 601L585.7 601C571.3 601 542.7 601 514.2 601C485.7 601 457.3 601 428.8 601C400.3 601 371.7 601 343 601C314.3 601 285.7 601 257 601C228.3 601 199.7 601 171.2 601C142.7 601 114.3 601 85.8 601C57.3 601 28.7 601 14.3 601L0 601Z" fill="#d2f2e6"></path><path d="M0 524L14.3 528.3C28.7 532.7 57.3 541.3 85.8 548.8C114.3 556.3 142.7 562.7 171.2 562.8C199.7 563 228.3 557 257 549.8C285.7 542.7 314.3 534.3 343 532.3C371.7 530.3 400.3 534.7 428.8 541.5C457.3 548.3 485.7 557.7 514.2 562.3C542.7 567 571.3 567 585.7 567L600 567L600 601L585.7 601C571.3 601 542.7 601 514.2 601C485.7 601 457.3 601 428.8 601C400.3 601 371.7 601 343 601C314.3 601 285.7 601 257 601C228.3 601 199.7 601 171.2 601C142.7 601 114.3 601 85.8 601C57.3 601 28.7 601 14.3 601L0 601Z" fill="#ffffff"></path></svg>