<svg id="visual" viewBox="0 0 900 600" width="900" height="600" xmlns="http://www.w3.org/2000/svg" xmlns:xlink="http://www.w3.org/1999/xlink" version="1.1"><path d="M0 356L21.5 365.8C43 375.7 86 395.3 128.8 403C171.7 410.7 214.3 406.3 257.2 411.8C300 417.3 343 432.7 385.8 436.5C428.7 440.3 471.3 432.7 514.2 420.3C557 408 600 391 642.8 389C685.7 387 728.3 400 771.2 401.7C814 403.3 857 393.7 878.5 388.8L900 384L900 601L878.5 601C857 601 814 601 771.2 601C728.3 601 685.7 601 642.8 601C600 601 557 601 514.2 601C471.3 601 428.7 601 385.8 601C343 601 300 601 257.2 601C214.3 601 171.7 601 128.8 601C86 601 43 601 21.5 601L0 601Z" fill="#01c89e"></path><path d="M0 413L21.5 422.8C43 432.7 86 452.3 128.8 461.5C171.7 470.7 214.3 469.3 257.2 467.8C300 466.3 343 464.7 385.8 458C428.7 451.3 471.3 439.7 514.2 438.8C557 438 600 448 642.8 443.2C685.7 438.3 728.3 418.7 771.2 418.8C814 419 857 439 878.5 449L900 459L900 601L878.5 601C857 601 814 601 771.2 601C728.3 601 685.7 601 642.8 601C600 601 557 601 514.2 601C471.3 601 428.7 601 385.8 601C343 601 300 601 257.2 601C214.3 601 171.7 601 128.8 601C86 601 43 601 21.5 601L0 601Z" fill="#6cd7b5"></path><path d="M0 486L21.5 488.5C43 491 86 496 128.8 498.8C171.7 501.7 214.3 502.3 257.2 492.7C300 483 343 463 385.8 459.8C428.7 456.7 471.3 470.3 514.2 478.8C557 487.3 600 490.7 642.8 483.5C685.7 476.3 728.3 458.7 771.2 450.8C814 443 857 445 878.5 446L900 447L900 601L878.5 601C857 601 814 601 771.2 601C728.3 601 685.7 601 642.8 601C600 601 557 601 514.2 601C471.3 601 428.7 601 385.8 601C343 601 300 601 257.2 601C214.3 601 171.7 601 128.8 601C86 601 43 601 21.5 601L0 601Z" fill="#a2e5cd"></path><path d="M0 488L21.5 493C43 498 86 508 128.8 511.3C171.7 514.7 214.3 511.3 257.2 508.2C300 505 343 502 385.8 501.8C428.7 501.7 471.3 504.3 514.2 511.3C557 518.3 600 529.7 642.8 531.3C685.7 533 728.3 525 771.2 519.7C814 514.3 857 511.7 878.5 510.3L900 509L900 601L878.5 601C857 601 814 601 771.2 601C728.3 601 685.7 601 642.8 601C600 601 557 601 514.2 601C471.3 601 428.7 601 385.8 601C343 601 300 601 257.2 601C214.3 601 171.7 601 128.8 601C86 601 43 601 21.5 601L0 601Z" fill="#d2f2e6"></path><path d="M0 524L21.5 528.3C43 532.7 86 541.3 128.8 548.8C171.7 556.3 214.3 562.7 257.2 562.8C300 563 343 557 385.8 549.8C428.7 542.7 471.3 534.3 514.2 532.3C557 530.3 600 534.7 642.8 541.5C685.7 548.3 728.3 557.7 771.2 562.3C814 567 857 567 878.5 567L900 567L900 601L878.5 601C857 601 814 601 771.2 601C728.3 601 685.7 601 642.8 601C600 601 557 601 514.2 601C471.3 601 428.7 601 385.8 601C343 601 300 601 257.2 601C214.3 601 171.7 601 128.8 601C86 601 43 601 21.5 601L0 601Z" fill="#ffffff"></path></svg>